mtllib Control Linkage.mtl
o Control_Linkage
v 0.021000 0.061000 -0.052000
v 0.021000 0.012000 0.000000
v 0.021000 0.024000 -0.043000
v -0.021000 0.061000 -0.052000
v -0.021000 0.024000 -0.043000
v -0.021000 0.012000 0.000000
v 0.021000 0.548000 0.086000
v 0.021000 0.410000 0.086000
v 0.021000 0.410000 -0.086000
v 0.021000 0.353000 -0.029000
v 0.021000 0.626000 -0.044000
v 0.021000 0.548000 -0.086000
v 0.021000 0.626000 0.044000
v 0.021000 0.626000 0.000000
v -0.021000 0.410000 -0.086000
v -0.021000 0.353000 -0.029000
v -0.021000 0.410000 0.086000
v -0.021000 0.353000 0.029000
v -0.021000 0.548000 -0.086000
v -0.021000 0.548000 0.086000
v 0.021000 0.094000 0.022000
v 0.021000 0.353000 0.029000
v 0.021000 0.061000 0.052000
v 0.021000 0.094000 -0.022000
v 0.021000 0.024000 0.043000
v -0.021000 0.094000 -0.022000
v -0.021000 0.094000 0.022000
v -0.021000 0.061000 0.052000
v -0.021000 0.024000 0.043000
v -0.021000 0.626000 -0.044000
v -0.021000 0.626000 0.000000
v -0.021000 0.626000 0.044000
v -0.175000 -0.419000 0.001000
v -0.145000 -0.419000 0.001000
v -0.145000 -0.419000 -0.029000
v -0.115000 -0.419000 0.001000
v -0.145000 -0.419000 0.031000
v 0.115000 -0.419000 0.001000
v 0.145000 -0.419000 0.001000
v 0.145000 -0.419000 -0.029000
v 0.175000 -0.419000 0.001000
v 0.145000 -0.419000 0.031000
v -0.145000 -0.501000 0.031000
v -0.115000 -0.443000 0.001000
v -0.175000 -0.518000 0.001000
v -0.145000 -0.460000 -0.029000
v -0.021000 0.078000 -0.014000
v -0.162000 0.044000 -0.016000
v -0.021000 0.055000 0.027000
v -0.146000 0.024000 0.029000
v -0.021000 0.031000 -0.014000
v -0.129000 0.004000 -0.016000
v -0.146000 -0.084000 0.021000
v -0.129000 -0.084000 -0.008000
v -0.162000 -0.084000 -0.008000
v -0.163000 -0.419000 -0.009000
v -0.146000 -0.419000 0.021000
v -0.128000 -0.419000 -0.009000
v 0.115000 -0.443000 0.001000
v 0.145000 -0.501000 0.031000
v 0.145000 -0.460000 -0.029000
v 0.175000 -0.518000 0.001000
v 0.021000 0.031000 -0.014000
v 0.146000 0.024000 0.029000
v 0.021000 0.055000 0.027000
v 0.162000 0.044000 -0.016000
v 0.021000 0.078000 -0.014000
v 0.129000 0.004000 -0.016000
v 0.146000 -0.084000 0.021000
v 0.162000 -0.084000 -0.008000
v 0.129000 -0.084000 -0.008000
v 0.146000 -0.419000 0.021000
v 0.163000 -0.419000 -0.009000
v 0.128000 -0.419000 -0.009000
vt 0.800061 0.080566
vt 0.499763 0.000488
vt 0.748058 0.019775
vt 0.800061 0.080566
vt 0.748058 0.019775
vt 0.499763 0.000488
vt 0.000488 0.872803
vt 0.000488 0.648682
vt 0.999283 0.648193
vt 0.670176 0.555664
vt 0.756848 0.999023
vt 0.999283 0.872314
vt 0.242924 0.999268
vt 0.500008 0.999268
vt 0.999283 0.648193
vt 0.670176 0.555664
vt 0.000488 0.648682
vt 0.329595 0.555908
vt 0.999283 0.872314
vt 0.000488 0.872803
vt 0.372808 0.134521
vt 0.329595 0.555908
vt 0.199710 0.081055
vt 0.626963 0.134277
vt 0.251713 0.020020
vt 0.626963 0.134277
vt 0.372808 0.134521
vt 0.199710 0.081055
vt 0.251713 0.020020
vt 0.756848 0.999023
vt 0.500008 0.999268
vt 0.242924 0.999268
vt 0.107789 0.418830
vt 0.062499 0.497381
vt 0.054083 0.439670
vt 0.017209 0.408411
vt 0.070915 0.387571
vt 0.094137 0.433177
vt 0.062499 0.497381
vt 0.029017 0.431600
vt 0.030861 0.394064
vt 0.095981 0.395641
vt 0.108032 0.225879
vt 0.020053 0.223406
vt 0.104945 0.276587
vt 0.016966 0.274113
vt 0.042461 0.399537
vt 0.074326 0.494366
vt 0.094168 0.352230
vt 0.080770 0.096637
vt 0.048395 0.008780
vt 0.029260 0.157965
vt 0.118292 0.228832
vt 0.091293 0.218551
vt 0.005926 0.224952
vt 0.000524 0.243256
vt 0.066937 0.270094
vt 0.093639 0.277452
vt 0.116953 0.267527
vt 0.060929 0.214269
vt 0.009615 0.268192
vt 0.123775 0.256798
vt 0.073458 0.214748
vt 0.051540 0.285244
vt 0.001223 0.243194
vt 0.075190 0.017407
vt 0.094600 0.101089
vt 0.081202 0.348056
vt 0.049260 0.486296
vt 0.031224 0.395919
vt 0.043954 0.162696
vt 0.114835 0.260014
vt 0.093021 0.219108
vt 0.055195 0.208518
vt 0.000289 0.247399
vt 0.008161 0.251171
vt 0.093874 0.273309
vt 0.115383 0.231800
vt 0.008045 0.232465
vt 0.064070 0.285723
vt 0.091216 0.157486
vt 0.088156 0.098369
vt 0.088156 0.096421
vt 0.091216 0.153590
vt 0.090745 0.300178
vt 0.091922 0.258035
vt 0.072385 0.471408
vt 0.082506 0.412075
vt 0.062499 0.495433
vt 0.062499 0.495433
vt 0.042492 0.454125
vt 0.052613 0.492186
vt 0.033076 0.319874
vt 0.034253 0.359543
vt 0.036842 0.152292
vt 0.033783 0.217840
vt 0.033783 0.213944
vt 0.036842 0.150344
vt 0.036136 0.392626
vt 0.033547 0.333014
vt 0.032841 0.298694
vt 0.035430 0.379733
vt 0.045552 0.065223
vt 0.037549 0.143758
vt 0.065324 0.001592
vt 0.059910 0.007281
vt 0.087449 0.091319
vt 0.079447 0.031552
vt 0.089568 0.322842
vt 0.092157 0.236361
vt 0.091451 0.272165
vt 0.088862 0.337219
vn 1.0000 -0.0000 0.0000
vn -1.0000 -0.0000 0.0000
vn 0.0000 1.0000 0.0000
vn -0.7071 0.0000 0.7071
vn 0.7071 0.0000 0.7071
vn -0.7071 0.0000 -0.7071
vn 0.7071 -0.0000 -0.7071
vn -0.2123 0.8523 0.4781
vn -0.2071 0.8646 0.4579
vn 0.0185 0.0000 -0.9998
vn 0.0170 0.0022 -0.9999
vn 0.0130 0.0080 -0.9999
vn 0.0118 0.0098 -0.9999
vn 0.2168 -0.8425 0.4932
vn 0.2071 -0.8626 0.4616
vn 0.9311 -0.0269 0.3637
vn 0.8618 0.0459 0.5052
vn -0.9389 0.0215 0.3434
vn -0.8750 -0.0358 0.4828
vn -0.1091 -0.0900 -0.9900
vn 0.0000 -0.0624 -0.9981
vn -0.8756 0.0012 0.4831
vn -0.8741 0.0009 0.4858
vn -0.8715 0.0003 0.4903
vn -0.8700 -0.0000 0.4930
vn 0.0000 0.0030 -1.0000
vn 0.8627 -0.0000 0.5057
vn 0.8613 0.0003 0.5081
vn 0.8589 0.0007 0.5121
vn 0.8575 0.0010 0.5145
vn -0.2168 -0.8425 0.4932
vn 0.2071 0.8646 0.4579
vn -0.0185 0.0000 -0.9998
vn -0.2071 -0.8626 0.4616
vn 0.2123 0.8523 0.4781
vn -0.0118 0.0098 -0.9999
vn -0.9311 -0.0269 0.3637
vn 0.8750 -0.0358 0.4828
vn 0.1091 -0.0900 -0.9900
vn -0.8618 0.0459 0.5052
vn 0.9389 0.0215 0.3434
vn -0.8627 -0.0000 0.5057
vn 0.8700 -0.0000 0.4930
vn -0.8575 0.0010 0.5145
vn 0.8756 0.0012 0.4831
vn 0.0000 -0.7071 0.7071
vn 0.0000 -0.0000 1.0000
vn 0.0000 0.4741 0.8805
vn 0.0000 0.4741 -0.8805
vn 0.0000 0.0000 -1.0000
vn 0.0000 -0.7071 -0.7071
vn 0.0000 -0.0270 -0.9996
vn 0.0000 0.6727 -0.7399
vn 0.0000 -0.2364 -0.9717
vn 0.0000 -0.9632 -0.2688
vn 0.0000 -0.9632 0.2688
vn 0.0000 -0.2364 0.9717
vn 0.0000 0.6727 0.7399
vn 0.0000 -0.0270 0.9996
usemtl Shape.101
s 1
f 1/1/1 2/2/1 3/3/1
f 4/4/2 5/5/2 6/6/2
f 7/7/1 8/8/1 9/9/1
f 8/8/1 10/10/1 9/9/1
f 11/11/1 7/7/1 12/12/1
f 7/7/1 9/9/1 12/12/1
f 13/13/1 7/7/1 14/14/1
f 7/7/1 11/11/1 14/14/1
f 15/15/2 16/16/2 17/17/2
f 16/16/2 18/18/2 17/17/2
f 19/19/2 15/15/2 20/20/2
f 15/15/2 17/17/2 20/20/2
f 21/21/1 10/10/1 22/22/1
f 10/10/1 8/8/1 22/22/1
f 23/23/1 24/24/1 21/21/1
f 24/24/1 10/10/1 21/21/1
f 25/25/1 1/1/1 23/23/1
f 1/1/1 24/24/1 23/23/1
f 2/2/1 1/1/1 25/25/1
f 26/26/2 27/27/2 16/16/2
f 27/27/2 18/18/2 16/16/2
f 4/4/2 28/28/2 26/26/2
f 28/28/2 27/27/2 26/26/2
f 6/6/2 29/29/2 4/4/2
f 29/29/2 28/28/2 4/4/2
f 30/30/2 20/20/2 31/31/2
f 20/20/2 32/32/2 31/31/2
f 19/19/2 20/20/2 30/30/2
usemtl Shape.102
f 33/33/3 34/34/3 35/35/3
f 34/34/3 36/36/3 35/35/3
f 36/36/3 34/34/3 37/37/3
f 34/34/3 33/33/3 37/37/3
f 38/38/3 39/39/3 40/40/3
f 39/39/3 41/41/3 40/40/3
f 41/41/3 39/39/3 42/42/3
f 39/39/3 38/38/3 42/42/3
f 33/33/4 43/43/4 37/37/4
f 43/43/5 44/44/5 37/37/5
f 35/35/6 45/45/6 33/33/6
f 45/45/4 43/43/4 33/33/4
f 36/36/7 46/46/7 35/35/7
f 46/46/6 45/45/6 35/35/6
f 37/37/5 44/44/5 36/36/5
f 44/44/7 46/46/7 36/36/7
f 47/47/8 48/48/8 49/49/8
f 48/48/9 50/50/9 49/49/9
f 51/51/10 52/52/11 47/47/12
f 52/52/11 48/48/13 47/47/12
f 49/49/14 50/50/14 51/51/14
f 50/50/15 52/52/15 51/51/15
f 50/53/16 53/54/16 52/55/16
f 53/54/17 54/56/17 52/55/17
f 48/57/18 55/58/18 50/53/18
f 55/58/19 53/54/19 50/53/19
f 52/55/20 54/56/20 48/57/20
f 54/56/21 55/58/21 48/57/21
f 55/58/22 56/59/23 53/54/24
f 56/59/23 57/60/25 53/54/24
f 54/56/26 58/61/26 55/58/26
f 58/61/26 56/59/26 55/58/26
f 53/54/27 57/60/28 54/56/29
f 57/60/28 58/61/30 54/56/29
f 38/38/4 59/62/4 42/42/4
f 59/62/4 60/63/4 42/42/4
f 40/40/6 61/64/6 38/38/6
f 61/64/6 59/62/6 38/38/6
f 41/41/7 62/65/7 40/40/7
f 62/65/7 61/64/7 40/40/7
f 42/42/5 60/63/5 41/41/5
f 60/63/5 62/65/5 41/41/5
f 63/66/31 64/67/31 65/68/31
f 64/67/32 66/69/32 65/68/32
f 67/70/33 68/71/33 63/66/33
f 68/71/34 64/67/34 63/66/34
f 65/68/35 66/69/35 67/70/35
f 66/69/36 68/71/36 67/70/36
f 68/72/37 69/73/37 64/74/37
f 69/73/38 70/75/38 64/74/38
f 66/76/39 71/77/39 68/72/39
f 71/77/40 69/73/40 68/72/40
f 64/74/41 70/75/41 66/76/41
f 70/75/21 71/77/21 66/76/21
f 71/77/42 72/78/42 69/73/42
f 72/78/43 73/79/43 69/73/43
f 70/75/26 74/80/26 71/77/26
f 74/80/44 72/78/44 71/77/44
f 69/73/45 73/79/45 70/75/45
f 73/79/26 74/80/26 70/75/26
f 8/81/46 17/82/46 22/83/46
f 17/82/46 18/84/46 22/83/46
f 7/85/47 20/86/47 8/81/47
f 20/86/47 17/82/47 8/81/47
f 13/87/48 32/88/48 7/85/48
f 32/88/48 20/86/48 7/85/48
f 14/89/3 31/90/3 13/87/3
f 31/90/3 32/88/3 13/87/3
f 11/91/3 30/92/3 14/89/3
f 30/92/3 31/90/3 14/89/3
f 12/93/49 19/94/49 11/91/49
f 19/94/49 30/92/49 11/91/49
f 9/95/50 15/96/50 12/93/50
f 15/96/50 19/94/50 12/93/50
f 10/97/51 16/98/51 9/95/51
f 16/98/51 15/96/51 9/95/51
f 24/99/52 26/100/52 10/97/52
f 26/100/52 16/98/52 10/97/52
f 1/101/53 4/102/53 24/99/53
f 4/102/53 26/100/53 24/99/53
f 3/103/54 5/104/54 1/101/54
f 5/104/54 4/102/54 1/101/54
f 2/105/55 6/106/55 3/103/55
f 6/106/55 5/104/55 3/103/55
f 25/107/56 29/108/56 2/105/56
f 29/108/56 6/106/56 2/105/56
f 23/109/57 28/110/57 25/107/57
f 28/110/57 29/108/57 25/107/57
f 21/111/58 27/112/58 23/109/58
f 27/112/58 28/110/58 23/109/58
f 22/83/59 18/84/59 21/111/59
f 18/84/59 27/112/59 21/111/59
