# Blender 4.3.2
# www.blender.org
mtllib Tweeter 64.mtl
o Mario_Mesh.001
v -18.595217 2.777443 -8.598438
v -0.264580 11.125808 -29.541334
v -7.933362 31.453650 15.953537
v -0.172559 34.572010 16.974483
v -26.571917 11.627328 0.810917
v -17.402393 19.955645 -15.703860
v -18.746737 18.685055 -7.329495
v -0.417705 5.407358 -38.340157
v -5.420682 7.655349 -24.287245
v -10.600528 7.616242 0.197401
v -15.419513 15.035838 1.212594
v -10.138500 36.228260 7.401669
v -0.218865 4.478424 -21.166668
v -23.558516 7.471291 3.470308
v -16.258593 6.598804 -20.760170
v -12.947345 3.214842 -3.015576
v -28.871824 8.522299 -9.013927
v -10.346628 24.426027 -23.240993
v -0.130456 28.044455 -22.294050
v -0.182796 18.479292 14.053388
v -0.156921 2.507841 -6.314355
v -0.017771 37.958416 0.220217
v -0.162026 1.724821 -25.651077
v -0.432464 3.007721 -42.513512
v -38.023445 16.856926 -39.186264
v -22.904716 18.857542 -22.185091
v -26.360451 58.546371 -54.249241
v -11.457788 60.547386 -37.248188
v 3.444855 62.547642 -20.247074
v -8.002145 20.858170 -5.183942
v 18.559679 2.777445 -8.598436
v 7.897820 31.453650 15.953537
v 26.536375 11.627332 0.810919
v 17.366852 19.955645 -15.703858
v 18.711195 18.685055 -7.329494
v 5.385143 7.655349 -24.287245
v 10.564988 7.616242 0.197402
v 15.383973 15.035838 1.212596
v 10.102957 36.228260 7.401669
v 23.522974 7.471293 3.470309
v 16.223055 6.598804 -20.760170
v 12.911805 3.214844 -3.015575
v 28.836287 8.522303 -9.013925
v 10.311089 24.426027 -23.240993
v 37.987907 16.856930 -39.186256
v 22.869179 18.857546 -22.185087
v 26.324909 58.546371 -54.249241
v 11.422247 60.547386 -37.248188
v -3.480399 62.547642 -20.247074
v 7.966604 20.858170 -5.183942
vn -0.7111 0.4038 0.5755
vn -0.7051 0.4064 0.5810
vn -0.7087 0.4038 0.5785
vn -0.7113 0.4057 0.5740
vn 0.7112 0.4038 0.5755
vn 0.7089 0.4036 0.5784
vn 0.7052 0.4064 0.5810
vn 0.7113 0.4056 0.5740
vn -0.7111 0.4033 0.5759
vn 0.7111 0.4033 0.5759
vn 0.0010 0.5647 0.8253
vn -0.6262 0.7609 0.1702
vn -0.5648 0.1827 0.8047
vn -0.7915 0.5996 0.1182
vn 0.0043 0.9233 -0.3841
vn -0.6203 -0.5386 -0.5702
vn 0.0012 0.4432 -0.8964
vn -0.0000 0.9823 -0.1871
vn 0.0036 -0.5840 0.8118
vn 0.0010 -0.5072 0.8618
vn -0.0989 -0.9714 -0.2159
vn -0.0013 -0.9490 0.3154
vn -0.4910 0.5088 -0.7071
vn -0.7861 0.4719 -0.3991
vn -0.4353 -0.4165 0.7982
vn -0.9409 -0.2419 -0.2370
vn -0.7698 0.3555 0.5300
vn -0.5275 0.1089 0.8425
vn -0.4958 -0.5191 -0.6962
vn 0.1357 -0.9905 0.0239
vn 0.0005 -0.9761 0.2174
vn 0.1672 -0.0550 -0.9844
vn 0.0007 0.7482 -0.6635
vn 0.0119 -0.9873 0.1585
vn 0.5647 0.1828 0.8048
vn 0.6262 0.7609 0.1702
vn 0.7915 0.5996 0.1182
vn 0.6203 -0.5386 -0.5702
vn -0.0035 -0.5838 0.8119
vn 0.0989 -0.9714 -0.2159
vn 0.0013 -0.9490 0.3154
vn 0.4908 0.5089 -0.7072
vn 0.7861 0.4719 -0.3991
vn 0.4353 -0.4165 0.7982
vn 0.9409 -0.2419 -0.2370
vn 0.7698 0.3555 0.5300
vn 0.5275 0.1089 0.8425
vn 0.4958 -0.5191 -0.6962
vt 0.012402 1.007239
vt 0.976098 0.041869
vt 0.012402 0.024817
vt 0.976098 1.008789
vt 0.021703 0.991737
vt 0.988500 0.991737
vt 0.976098 0.029468
vt 0.021703 0.009315
vt 0.383611 0.921746
vt 0.498020 0.914435
vt 0.430769 0.899149
vt 0.545770 0.754705
vt 0.849741 0.665406
vt 0.726927 0.664626
vt 0.784704 0.705879
vt 0.582303 0.953548
vt 0.432379 0.716499
vt 0.375992 0.824824
vt 0.686091 0.312798
vt 0.650101 0.230012
vt 0.659616 0.379870
vt 0.676469 0.774861
vt 0.619135 0.746864
vt 0.667528 0.514782
vt 0.613752 0.549493
vt 0.647340 0.592478
vt 0.552122 0.502433
vt 0.625679 0.509297
vt 0.691421 0.579768
vt 0.591932 0.452012
vt 0.536720 0.582240
vt 0.575908 0.627318
vt 0.721922 0.606433
vt 0.760342 0.604519
vt 0.666038 0.700411
vt 0.883943 0.645043
vt 0.553154 0.699253
vt 0.714473 0.826746
vt 0.430104 0.623851
vt 0.375933 0.667912
vt 0.482664 0.753028
vt 0.411372 0.564894
vt 0.375898 0.577520
vt 0.604849 0.380042
vt 0.653085 0.487493
s 1
usemtl Wing_Tip
f 28/1/1 25/2/2 26/3/3
f 25/2/2 28/1/1 27/4/4
f 48/1/5 46/3/6 45/2/7
f 45/2/7 47/4/8 48/1/5
usemtl Wing_Base
f 29/5/9 28/6/1 26/7/3
f 29/5/9 26/7/3 30/8/9
f 49/5/10 46/7/6 48/6/5
f 49/5/10 50/8/10 46/7/6
usemtl White
f 4/9/11 12/10/12 3/11/13
f 12/10/12 7/12/14 3/11/13
f 8/13/15 9/14/16 2/15/17
f 4/9/11 22/16/18 12/10/12
f 3/11/13 10/17/19 20/18/20
f 1/19/21 9/20/16 16/21/22
f 18/22/23 6/23/24 12/10/12
f 14/24/25 17/25/26 1/26/21
f 7/27/14 17/25/26 5/28/27
f 1/26/21 16/29/22 14/24/25
f 14/24/25 11/30/28 5/28/27
f 17/25/26 6/31/24 15/32/29
f 7/27/14 6/31/24 17/25/26
f 13/33/30 9/14/16 23/34/31
f 6/23/24 18/22/23 15/35/29
f 24/36/32 9/14/16 8/13/15
f 18/22/23 2/15/17 9/14/16
f 1/26/21 15/32/29 9/37/16
f 2/15/17 18/22/23 19/38/33
f 10/17/19 16/39/22 21/40/34
f 11/30/28 7/27/14 5/28/27
f 3/11/13 11/41/28 10/17/19
f 22/16/18 18/22/23 12/10/12
f 7/12/14 11/41/28 3/11/13
f 3/11/13 20/18/20 4/9/11
f 6/23/24 7/12/14 12/10/12
f 21/40/34 9/42/16 13/43/30
f 5/28/27 17/25/26 14/24/25
f 9/14/16 24/36/32 23/34/31
f 15/32/29 1/26/21 17/25/26
f 19/38/33 18/22/23 22/16/18
f 10/17/19 21/40/34 20/18/20
f 16/21/22 10/44/19 14/45/25
f 10/44/19 11/30/28 14/45/25
f 15/35/29 18/22/23 9/14/16
f 9/42/16 21/40/34 16/39/22
f 4/9/11 32/11/35 39/10/36
f 39/10/36 32/11/35 35/12/37
f 8/13/15 2/15/17 36/14/38
f 4/9/11 39/10/36 22/16/18
f 32/11/35 20/18/20 37/17/39
f 31/19/40 42/21/41 36/20/38
f 44/22/42 39/10/36 34/23/43
f 40/24/44 31/26/40 43/25/45
f 35/27/37 33/28/46 43/25/45
f 31/26/40 40/24/44 42/29/41
f 40/24/44 33/28/46 38/30/47
f 43/25/45 41/32/48 34/31/43
f 35/27/37 43/25/45 34/31/43
f 13/33/30 23/34/31 36/14/38
f 34/23/43 41/35/48 44/22/42
f 24/36/32 8/13/15 36/14/38
f 44/22/42 36/14/38 2/15/17
f 31/26/40 36/37/38 41/32/48
f 2/15/17 19/38/33 44/22/42
f 37/17/39 21/40/34 42/39/41
f 38/30/47 33/28/46 35/27/37
f 32/11/35 37/17/39 38/41/47
f 22/16/18 39/10/36 44/22/42
f 35/12/37 32/11/35 38/41/47
f 32/11/35 4/9/11 20/18/20
f 34/23/43 39/10/36 35/12/37
f 21/40/34 13/43/30 36/42/38
f 33/28/46 40/24/44 43/25/45
f 36/14/38 23/34/31 24/36/32
f 41/32/48 43/25/45 31/26/40
f 19/38/33 22/16/18 44/22/42
f 37/17/39 20/18/20 21/40/34
f 42/21/41 40/45/44 37/44/39
f 37/44/39 40/45/44 38/30/47
f 41/35/48 36/14/38 44/22/42
f 36/42/38 42/39/41 21/40/34
o Mario_Mesh.003
v -4.110750 77.411064 34.846909
v -18.905657 50.666733 29.369085
v -17.570782 67.649185 32.570187
v -4.837636 42.279942 38.170116
v -9.003656 46.194641 35.670712
v -0.038876 40.149696 38.618359
v -0.060643 55.085037 48.059200
v -0.211301 50.908558 53.107632
v -5.184103 43.081154 50.771343
v -0.241995 36.219486 63.634808
v -5.507463 54.074165 39.252949
v -12.547331 43.777470 31.582163
v -16.419109 35.160297 3.424072
v -26.491829 67.661186 20.568268
v -17.627073 83.714005 20.527868
v -16.506739 86.277451 6.411430
v -0.061444 38.383694 -11.533875
v -15.835942 37.072613 20.859091
v -16.881395 67.292305 -14.802103
v -26.355261 54.076015 2.957642
v -16.748339 53.940739 -14.850533
v -0.182030 84.532669 -10.766079
v -26.512249 67.543015 3.388697
v -26.391542 54.360531 20.433115
v -16.370480 79.537315 -10.615181
v -16.591661 41.145996 -7.149085
v -5.010869 38.897449 47.370556
v -0.007000 35.199341 50.723919
v -0.060947 84.238258 31.717632
v 4.096747 77.411064 34.846909
v 18.891657 50.666733 29.369085
v 17.556782 67.649185 32.570187
v 4.823636 42.279942 38.170116
v 8.989656 46.194641 35.670712
v 5.170102 43.081154 50.771343
v 5.493462 54.074165 39.252949
v 12.533331 43.777470 31.582163
v -0.075412 57.365280 39.834461
v 16.405113 35.160297 3.424074
v 26.477829 67.661186 20.568268
v 17.613070 83.714005 20.527868
v 16.492739 86.277451 6.411432
v 15.821944 37.072613 20.859091
v 16.867395 67.292305 -14.802102
v 26.341261 54.076015 2.957644
v 16.734343 53.940739 -14.850533
v 26.498249 67.543015 3.388699
v 26.377542 54.360531 20.433115
v -0.103763 69.991463 38.584454
v -0.045421 27.245247 62.442486
v -0.093301 30.683025 4.039371
v -0.088609 90.361122 2.574649
v -0.093836 89.583313 20.697535
v -0.093828 33.031914 20.697544
v -0.070871 53.197075 -19.091518
v -0.126563 67.418800 -19.000013
v 16.356480 79.537315 -10.615180
v 16.577665 41.145996 -7.149083
v 4.996869 38.897449 47.370556
vn 0.5887 0.2036 0.7823
vn -0.0006 0.2323 0.9726
vn 0.6625 -0.1447 0.7350
vn 0.9278 0.3674 0.0646
vn 0.9077 -0.4117 -0.0817
vn -0.0080 -0.1237 0.9923
vn 0.7075 0.7044 -0.0575
vn 0.0235 0.9996 -0.0153
vn -0.5882 0.2033 0.7828
vn -0.6624 -0.1447 0.7350
vn -0.9278 0.3674 0.0646
vn -0.9076 -0.4117 -0.0817
vn -0.7074 0.7045 -0.0575
vn -0.0236 0.9996 -0.0151
vn 0.5513 -0.3900 -0.7376
vn -0.0654 -0.7466 -0.6621
vn 0.1189 -0.3926 -0.9120
vn 0.6793 0.0468 -0.7323
vn 0.0602 0.8086 -0.5853
vn 0.7624 0.3474 -0.5459
vn 0.8205 0.3522 -0.4504
vn 0.5145 0.8570 -0.0283
vn -0.0395 -0.5927 -0.8044
vn 0.8422 0.0828 -0.5327
vn -0.0009 -0.8806 -0.4738
vn -0.0371 -0.9425 -0.3322
vn 0.9271 -0.1920 -0.3220
vn 0.8242 0.4786 -0.3027
vn -0.0379 -0.3769 -0.9255
vn -0.0002 0.8637 -0.5041
vn -0.0026 0.5847 -0.8113
vn -0.0011 0.9978 0.0669
vn -0.0012 0.9488 -0.3159
vn -0.2057 -0.6376 -0.7424
vn 0.0029 -0.7963 0.6048
vn -0.5513 -0.3899 -0.7376
vn -0.1190 -0.3927 -0.9120
vn -0.0692 -0.0783 -0.9945
vn -0.6793 0.0469 -0.7323
vn -0.0601 0.8086 -0.5853
vn -0.7624 0.3475 -0.5459
vn -0.5145 0.8570 -0.0283
vn -0.8205 0.3521 -0.4504
vn -0.8422 0.0828 -0.5328
vn -0.9271 -0.1921 -0.3220
vn -0.8242 0.4786 -0.3027
vn 0.2057 -0.6376 -0.7424
vn -0.0101 0.7654 0.6435
vn 0.5938 0.5483 0.5889
vn 0.8072 -0.2525 0.5335
vn 0.5927 -0.7425 0.3120
vn -0.0219 -0.9403 0.3395
vn -0.0118 -0.6102 0.7921
vn 0.5531 0.8258 0.1103
vn -0.0009 0.9982 0.0606
vn -0.5938 0.5483 0.5889
vn -0.8073 -0.2527 0.5333
vn -0.5927 -0.7426 0.3120
vn -0.5531 0.8258 0.1103
vt 0.002577 0.994547
vt 0.998426 0.994534
vt 0.001598 0.006455
vt 0.998002 0.994748
vt 0.003426 0.993969
vt 0.991511 0.009131
vt 0.990833 0.008916
vt 0.000498 0.004188
vt 0.009235 0.994279
vt 0.004319 0.005027
vt 0.993332 0.998399
vt 0.993157 -0.003580
vt 0.898112 0.327264
vt 0.868496 0.547721
vt 0.860882 0.490167
vt 0.898244 0.210008
vt 0.975768 0.123351
vt 0.980013 0.264548
vt 0.881322 0.136501
vt 0.832299 0.103277
vt 0.856479 0.072952
vt 0.203592 0.110734
vt 0.115135 0.013396
vt 0.182703 0.010116
vt 0.214201 0.006642
vt 0.214326 0.053368
vt 0.068585 0.185949
vt 0.071916 0.106655
vt 0.048780 0.290503
vt 0.019671 0.279015
vt 0.075247 0.027361
vt 0.029837 0.157440
vt 0.040002 0.035865
vt 0.965841 0.022546
vt 0.856643 0.037919
vt 0.966609 0.436995
vt 0.966925 0.561781
vt 0.992608 -0.004888
vt 0.783636 0.526051
vt 0.291592 0.525889
vt 0.236351 0.677106
vt 0.180298 0.622239
vt 0.114975 0.749705
vt 0.239142 0.750015
vt 0.196646 0.820065
vt 0.111348 0.874339
vt 0.158176 0.978054
vt 0.291521 0.901800
vt 0.130533 0.686225
vt 0.343858 0.667250
vt 0.024871 0.749985
vt 0.013856 0.841107
vt 0.013903 0.455470
vt 0.118567 0.561815
vt 0.013851 0.522583
vt 0.341961 0.758278
vt 0.013826 0.665733
vt 0.162859 0.453735
vt 1.018974 -0.059607
vt 1.035834 0.646106
vt 0.840080 0.826810
vt 0.006777 0.996288
vt -0.183571 1.048309
vt -0.025969 0.101223
vt 0.716065 0.873316
vt 1.012774 -0.013102
s 1
usemtl Handkerchief
f 71/46/49 105/47/50 69/48/51
f 70/49/52 71/50/49 73/51/53
f 105/47/50 106/52/54 69/48/51
f 71/50/49 69/53/51 73/51/53
f 70/54/52 73/55/53 74/56/55
f 73/55/53 64/57/56 74/56/55
f 96/46/57 94/48/58 105/47/50
f 95/49/59 97/51/60 96/50/57
f 105/47/50 94/48/58 106/52/54
f 96/50/57 97/51/60 94/53/58
f 95/54/59 98/56/61 97/55/60
f 97/55/60 98/56/61 90/57/62
usemtl Red
f 53/58/63 79/59/64 51/60/65
f 52/61/66 68/62/67 74/63/55
f 62/64/68 55/65/69 54/66/70
f 58/67/71 55/68/69 61/69/72
f 88/70/73 57/71/74 61/69/72
f 59/72/75 77/73/76 55/68/69
f 60/74/77 100/75/78 59/72/75
f 60/74/77 59/72/75 58/67/71
f 54/76/70 78/77/79 56/78/80
f 104/79/81 54/66/70 56/80/80
f 62/64/68 54/66/70 68/62/67
f 65/81/82 103/82/83 79/59/64
f 57/71/74 58/67/71 61/69/72
f 58/67/71 59/72/75 55/68/69
f 79/59/64 53/58/63 65/81/82
f 64/83/56 65/81/82 53/58/63
f 74/63/55 64/83/56 52/61/66
f 68/62/67 52/61/66 62/64/68
f 64/83/56 53/58/63 52/61/66
f 54/66/70 104/79/81 68/62/67
f 77/73/76 100/75/78 78/77/79
f 77/73/76 78/77/79 54/76/70
f 55/68/69 77/73/76 54/76/70
f 59/72/75 100/75/78 77/73/76
f 82/58/84 80/60/85 79/59/64
f 51/60/65 80/60/85 99/84/86
f 81/61/87 98/63/61 93/62/88
f 87/64/89 83/66/90 84/65/91
f 58/67/71 86/69/92 84/68/91
f 88/70/73 86/69/92 57/71/74
f 85/72/93 84/68/91 109/73/94
f 60/74/77 85/72/93 100/75/78
f 60/74/77 58/67/71 85/72/93
f 83/76/90 56/78/80 78/77/79
f 104/79/81 56/80/80 83/66/90
f 87/64/89 93/62/88 83/66/90
f 91/81/95 79/59/64 103/82/83
f 57/71/74 86/69/92 58/67/71
f 58/67/71 84/68/91 85/72/93
f 79/59/64 91/81/95 82/58/84
f 90/83/62 82/58/84 91/81/95
f 98/63/61 81/61/87 90/83/62
f 93/62/88 87/64/89 81/61/87
f 90/83/62 81/61/87 82/58/84
f 83/66/90 93/62/88 104/79/81
f 109/73/94 78/77/79 100/75/78
f 109/73/94 83/76/90 78/77/79
f 84/68/91 83/76/90 109/73/94
f 85/72/93 109/73/94 100/75/78
f 79/59/64 80/60/85 51/60/65
usemtl White
f 67/85/96 71/86/49 76/87/97
f 73/88/53 69/89/51 75/90/98
f 66/91/99 73/88/53 75/90/98
f 102/92/100 66/91/99 72/93/101
f 71/86/49 70/94/52 76/87/97
f 105/95/50 71/86/49 67/85/96
f 64/96/56 66/91/99 65/97/82
f 104/98/81 63/99/102 68/100/67
f 66/91/99 64/96/56 73/88/53
f 75/90/98 72/93/101 66/91/99
f 106/101/54 72/93/101 75/90/98
f 69/89/51 106/101/54 75/90/98
f 63/99/102 74/102/55 68/100/67
f 76/87/97 101/103/103 67/85/96
f 63/99/102 104/98/81 101/103/103
f 101/103/103 76/87/97 63/99/102
f 70/94/52 63/99/102 76/87/97
f 65/81/82 66/91/99 103/82/83
f 66/91/99 102/92/100 103/82/83
f 74/102/55 63/99/102 70/94/52
f 67/85/96 108/87/104 96/86/57
f 97/88/60 107/90/105 94/89/58
f 92/91/106 107/90/105 97/88/60
f 102/92/100 72/93/101 92/91/106
f 96/86/57 108/87/104 95/94/59
f 105/95/50 67/85/96 96/86/57
f 90/96/62 91/97/95 92/91/106
f 104/98/81 93/100/88 89/99/107
f 92/91/106 97/88/60 90/96/62
f 107/90/105 92/91/106 72/93/101
f 106/101/54 107/90/105 72/93/101
f 94/89/58 107/90/105 106/101/54
f 89/99/107 93/100/88 98/102/61
f 108/87/104 67/85/96 101/103/103
f 89/99/107 101/103/103 104/98/81
f 101/103/103 89/99/107 108/87/104
f 95/94/59 108/87/104 89/99/107
f 91/81/95 103/82/83 92/91/106
f 92/91/106 103/82/83 102/92/100
f 98/102/61 95/94/59 89/99/107
usemtl Eye
f 99/104/86 88/105/73 61/106/72
f 61/107/72 55/107/69 52/107/66
f 55/107/69 62/107/68 52/107/66
f 52/108/66 53/109/63 61/110/72
f 99/107/86 53/107/63 51/107/65
f 61/110/72 53/109/63 99/111/86
f 99/104/86 86/106/92 88/105/73
f 86/107/92 81/107/87 84/107/91
f 84/107/91 81/107/87 87/107/89
f 81/108/87 86/110/92 82/109/84
f 99/107/86 80/107/85 82/107/84
f 86/110/92 99/111/86 82/109/84
o Mario_Mesh.002
v -18.595217 2.777443 -8.598438
v -12.078600 -3.919138 -7.660933
v -26.184111 -3.939163 -12.050967
v -18.652666 -3.938261 26.795389
v -18.274418 -3.929152 -19.374386
v 18.559679 2.777445 -8.598436
v 12.043062 -3.919137 -7.660933
v 26.148573 -3.939161 -12.050965
v 18.617125 -3.938259 26.795389
v 18.238880 -3.929149 -19.374382
vn 0.4502 0.0072 0.8929
vn 0.6534 -0.6773 -0.3382
vn 0.0697 0.9886 -0.1335
vn -0.9095 -0.2680 -0.3179
vn 0.0075 0.4060 0.9138
vn -0.4503 0.0073 0.8929
vn -0.0697 0.9886 -0.1335
vn -0.6534 -0.6773 -0.3382
vn -0.0076 0.4060 0.9138
vn 0.9095 -0.2680 -0.3179
vt 0.826420 0.795851
vt 0.849481 0.788337
vt 0.864600 0.800295
vt 0.872542 0.780824
vt 0.855808 0.977720
vt 0.950652 0.976432
vt 0.937772 0.780969
vt 0.958278 0.787990
vt 0.978785 0.795011
s 1
usemtl White
f 111/112/108 114/113/109 110/114/110
f 110/114/110 112/115/111 113/116/112
f 113/117/112 112/118/111 114/119/109 111/120/108
f 110/114/110 113/116/112 111/112/108
f 110/114/110 114/113/109 112/115/111
f 116/112/113 115/114/114 119/113/115
f 115/114/114 118/116/116 117/115/117
f 118/117/116 116/120/113 119/119/115 117/118/117
f 115/114/114 116/112/113 118/116/116
f 115/114/114 117/115/117 119/113/115
